<svg xmlns="http://www.w3.org/2000/svg" width="206.246" height="45.132" viewBox="0 0 206.246 45.132"><defs><style>.a{fill:#fff;}</style></defs><path class="a" d="M270.771,89.343V87.317a23.806,23.806,0,0,1-4.383,1.323c-2.191.414-3.308,1.447-3.308,3.06a2.448,2.448,0,0,0,2.77,2.564,4.522,4.522,0,0,0,4.92-4.92m-6.946-7.194h-5.5c.661-4.052,3.514-6.036,8.559-6.036,6.036,0,9.1,1.985,9.22,6.036v7.442c0,6.036-3.639,8.724-9.551,9.137-5.25.413-8.889-2.026-8.889-6.863.124-5.251,3.928-6.657,9.468-7.194,2.357-.289,3.556-.992,3.556-2.191-.124-1.241-1.282-1.861-3.556-1.861-1.943,0-3.018.5-3.308,1.53" transform="translate(-209.354 -62.78)"/><path class="a" d="M370.119,88.46c.165-7.07,3.928-10.584,11.246-10.584h.785v5.706H380.29c-3.06,0-4.59,1.612-4.59,4.8v11.37h-5.581V88.46Z" transform="translate(-300.723 -64.212)"/><path class="a" d="M453.454,47.268V59.383l6.781-7.773h6.615l-7.566,8.1L466.933,72.7h-6.615L456.431,65.5q-1.054-1.861-2.108-1.86a1,1,0,0,0-.868,1.075V72.7h-5.5V44.581h2.853a2.7,2.7,0,0,1,2.646,2.687" transform="translate(-363.965 -37.16)"/><path class="a" d="M568.293,86.775v13.975h-5.582V87.891c0-6.243,3.142-9.344,9.386-9.344a10.237,10.237,0,0,1,6.533,1.861,10.49,10.49,0,0,1,6.532-1.778c6.243,0,9.344,3.1,9.3,9.344v12.858h-2.853c-1.819-.124-2.729-.992-2.729-2.729V86.858c-.124-2.274-1.364-3.391-3.8-3.391s-3.68,1.116-3.721,3.391v13.892h-5.54V86.775c-.124-2.274-1.364-3.39-3.8-3.39s-3.68,1.117-3.721,3.39" transform="translate(-457.205 -64.757)"/><path class="a" d="M757.843,84.789h8.228c-.331-2.894-1.7-4.383-4.052-4.383s-3.763,1.489-4.176,4.383M762.019,98.6C755.4,98.392,752.1,94.547,752.1,87.1s3.349-11.163,10.006-11.2c6.946,0,10.212,4.259,9.8,12.817H757.76c.207,3.349,1.654,5.044,4.341,5.044a5.077,5.077,0,0,0,3.556-1.571,2.409,2.409,0,0,1,1.861-.785h4.052c-1.2,4.63-4.175,7.194-9.551,7.194" transform="translate(-611.081 -62.607)"/><path class="a" d="M879.672,62.018c-.041,4.424,1.447,6.657,4.589,6.657s4.714-2.233,4.714-6.657c-.124-4.217-1.654-6.284-4.63-6.284s-4.507,2.067-4.672,6.284m14.76-14.346V63.547c0,6.574-3.432,9.84-10.254,9.8-6.781-.124-10.171-3.8-10.171-11.08,0-7.442,2.894-11.245,8.723-11.452a6.89,6.89,0,0,1,6.243,3.391V44.9H891.7a2.79,2.79,0,0,1,2.729,2.77" transform="translate(-710.134 -37.42)"/><path class="a" d="M1006.972,95.108c2.315,0,3.473-.662,3.473-2.067,0-1.116-1.9-2.026-5.665-2.688-4.837-.868-7.318-3.018-7.359-6.45,0-4.713,3.721-6.946,8.724-7.029a10.913,10.913,0,0,1,6.7,1.861,6.952,6.952,0,0,1,2.6,5.334h-3.473a2.4,2.4,0,0,1-2.439-1.364c-.372-.951-1.488-1.489-3.307-1.489-2.15,0-3.225.579-3.225,1.7s1.406,1.984,4.258,2.522c3.721.744,6.16,1.7,7.359,2.812a5.433,5.433,0,0,1,1.53,3.887c0,5.375-4.217,7.359-10.005,7.359-3.059,0-5.375-.662-6.863-1.944a6.639,6.639,0,0,1-2.481-5.664h5.623c.124,2.4,1.86,3.225,4.548,3.225" transform="translate(-809.904 -63.399)"/><path class="a" d="M52.921,81.953a17.479,17.479,0,0,0,17.27-.372l-9.753-19.09L51.53,78.4a12.925,12.925,0,0,1-3.944-5.128l10.932-20.24,4.034.065L74.829,77.546h0l2.544,4.811a22.574,22.574,0,0,1-27.327,3.837l2.875-4.24Z" transform="translate(-38.664 -44.024)"/><path class="a" d="M45.129,27.929a22.461,22.461,0,0,1-4.4,13.034L37.97,35.8a17.465,17.465,0,1,0-26.118,5.558L8.969,45.576A22.566,22.566,0,1,1,45.129,27.929" transform="translate(0 -5)"/></svg>